PathFileType	4	(X/Y/Z)	/Users/itak/Documents/Research/Walk-IL/dataset/trc/00551_00009.trc
DataRate	CameraRate	NumFrames	NumMarkers	Units	OrigDataRate	OrigDataStartFrame	OrigNumFrames
100.000000	100.000000	4	53	mm	100.000000	61	489
Frame#	Time	RPSI			LPSI			L3			STRN			T10			C7			CLAV			RBAK			LBAK			LSHO			LUPA			LAEL			LAOL			LWTS			LWPS			LFRA			LIFD			LHPS			LHTS			RSHO			RUPA			RAEL			RAOL			RWTS			RWPS			RFRA			RIFD			RHTS			RHPS			RBHD			LFHD			RFHD			LBHD			LHIP			RHIP			RASI			LASI			LKNE			LTHI			LANK			LTIP			LTOE			LMT1			LMT5			LHEE			RKNE			RTHI			RANK			RTIP			RTOE			RMT1			RMT5			RHEE			
		X1	Y1	Z1	X2	Y2	Z2	X3	Y3	Z3	X4	Y4	Z4	X5	Y5	Z5	X6	Y6	Z6	X7	Y7	Z7	X8	Y8	Z8	X9	Y9	Z9	X10	Y10	Z10	X11	Y11	Z11	X12	Y12	Z12	X13	Y13	Z13	X14	Y14	Z14	X15	Y15	Z15	X16	Y16	Z16	X17	Y17	Z17	X18	Y18	Z18	X19	Y19	Z19	X20	Y20	Z20	X21	Y21	Z21	X22	Y22	Z22	X23	Y23	Z23	X24	Y24	Z24	X25	Y25	Z25	X26	Y26	Z26	X27	Y27	Z27	X28	Y28	Z28	X29	Y29	Z29	X30	Y30	Z30	X31	Y31	Z31	X32	Y32	Z32	X33	Y33	Z33	X34	Y34	Z34	X35	Y35	Z35	X36	Y36	Z36	X37	Y37	Z37	X38	Y38	Z38	X39	Y39	Z39	X40	Y40	Z40	X41	Y41	Z41	X42	Y42	Z42	X43	Y43	Z43	X44	Y44	Z44	X45	Y45	Z45	X46	Y46	Z46	X47	Y47	Z47	X48	Y48	Z48	X49	Y49	Z49	X50	Y50	Z50	X51	Y51	Z51	X52	Y52	Z52	X53	Y53	Z53	

62	0.61	-928.5631103515625	1026.504272460938	271.5789489746094	-921.3604736328125	1031.165771484375	137.8258361816406	-915.2716064453125	1108.313354492188	201.1519165039062	-682.0311279296875	1298.505859375	201.0629425048828	-925.537841796875	1234.561889648438	202.1105194091797	-884.3909912109375	1507.803466796875	217.4009399414062	-704.9043579101562	1410.118408203125	202.6105804443359	-948.8796997070312	1380.180419921875	301.988037109375	-917.3784790039062	1455.233764648438	125.640380859375	-821.5564575195312	1485.1533203125	44.10257339477539	-831.1334228515625	1360.45751953125	-39.28096771240234	-805.0362548828125	1139.061767578125	-61.68025970458984	-894.2587280273438	1128.629760742188	-14.68921089172363	-704.8336791992188	900.5267333984375	-7.821472644805908	-744.27099609375	874.8627319335938	-81.02616882324219	-778.3262939453125	1053.480834960938	-66.89861297607422	-699.7929077148438	726.5302734375	-12.334885597229	-733.6973266601562	815.6622314453125	-71.28232574462891	-681.9078369140625	825.1211547851562	-27.11659812927246	-820.873779296875	1469.603271484375	370.4128723144531	-838.3435668945312	1404.983276367188	438.4620056152344	-839.9967651367188	1115.468383789062	484.5048522949219	-894.9265747070312	1098.348022460938	458.0665283203125	-706.8591918945312	894.4885864257812	434.9470825195312	-749.0170288085938	873.201171875	503.37353515625	-828.3206787109375	1059.620971679688	490.5757751464844	-696.814208984375	720.0457153320312	438.5334167480469	-679.8849487304688	802.2615356445312	446.2638854980469	-732.9171752929688	798.1920776367188	498.116943359375	-827.19921875	1682.75244140625	282.0118408203125	-677.2987670898438	1728.434204101562	145.1590270996094	-692.36328125	1723.023071289062	288.022216796875	-802.5352172851562	1688.616943359375	117.7561798095703	-795.9266967773438	942.9203491210938	10.74251079559326	-816.0244140625	942.9984741210938	397.8895874023438	-725.4168701171875	967.2681274414062	340.4120178222656	-717.1624755859375	962.0703735351562	64.76992034912109	-797.8479614257812	495.027587890625	69.76571655273438	-790.2275390625	660.8263549804688	30.93914413452148	-874.3297119140625	32.98406219482422	81.50157928466797	-860.6935424804688	252.089111328125	67.15341186523438	-662.1763916015625	39.27442169189453	128.9468688964844	-731.9942016601562	40.91347885131836	168.5064697265625	-752.3387451171875	35.56806182861328	63.67431640625	-941.2638549804688	36.89620971679688	140.2836151123047	-818.721923828125	497.9279479980469	362.6480407714844	-789.7308349609375	787.5044555664062	397.4842224121094	-905.2064208984375	35.34278106689453	355.2055053710938	-823.8450927734375	356.7440490722656	355.5117492675781	-681.3079223632812	39.11024475097656	338.0544128417969	-739.3816528320312	40.51029205322266	290.3043518066406	-773.6459350585938	36.59543228149414	389.3379516601562	-953.5418090820312	31.20123100280762	293.0406799316406	
63	0.62	-928.1848754882812	1026.540405273438	270.7603759765625	-920.8875122070312	1031.200439453125	137.0042572021484	-914.786376953125	1108.410400390625	200.3436737060547	-681.35888671875	1298.4169921875	200.3489074707031	-924.9627685546875	1234.681762695312	201.3115386962891	-883.5299072265625	1507.887329101562	216.6459045410156	-704.203125	1410.002563476562	201.891357421875	-948.2402954101562	1380.302734375	301.1765441894531	-916.498779296875	1455.329223632812	124.9015502929688	-820.6896362304688	1485.201904296875	43.37041854858398	-830.7583618164062	1360.621337890625	-40.08444595336914	-805.8111572265625	1139.13671875	-62.74983596801758	-894.9666748046875	1129.15087890625	-15.56494617462158	-707.123779296875	899.75439453125	-9.496518135070801	-746.8632202148438	874.5201416015625	-82.70457458496094	-779.6216430664062	1053.3857421875	-68.19049835205078	-703.5249633789062	725.3107299804688	-14.33089733123779	-736.739013671875	815.2254638671875	-73.08791351318359	-684.3316650390625	824.465087890625	-29.26493453979492	-820.1900024414062	1469.533813476562	369.6966552734375	-837.8331298828125	1405.022827148438	437.7090759277344	-840.0877075195312	1115.542846679688	483.861083984375	-894.9965209960938	1098.463012695312	457.3563842773438	-707.1076049804688	894.516357421875	434.5789184570312	-749.2974243164062	873.2214965820312	502.8501586914062	-828.5675048828125	1059.675537109375	490.0871887207031	-696.95751953125	720.0966186523438	438.0020141601562	-680.06396484375	802.2423095703125	445.8639221191406	-733.2151489257812	798.1986694335938	497.5828857421875	-826.266845703125	1682.733154296875	281.3362731933594	-676.14697265625	1728.271362304688	144.6446075439453	-691.39111328125	1722.80078125	287.4371032714844	-801.4364013671875	1688.644287109375	117.1355819702148	-795.039794921875	942.502197265625	10.22652149200439	-815.6889038085938	943.0159912109375	397.0525207519531	-725.1815185546875	967.2294311523438	339.7348937988281	-716.6710815429688	961.9942626953125	64.0576171875	-797.7573852539062	494.9790649414062	69.38380432128906	-790.142822265625	660.7022705078125	30.220458984375	-874.3202514648438	32.87103652954102	81.57134246826172	-860.6436767578125	252.0393981933594	67.00559997558594	-662.1932983398438	39.2831916809082	128.9437408447266	-731.9966430664062	40.91813659667969	168.5036163330078	-752.352294921875	35.55554580688477	63.66509246826172	-941.2826538085938	36.86387252807617	140.26513671875	-818.5804443359375	497.9766235351562	362.260986328125	-789.6163330078125	787.5497436523438	396.922607421875	-905.2108764648438	35.36738967895508	355.1937255859375	-823.6973266601562	356.7513122558594	355.2416076660156	-681.30908203125	39.10658645629883	338.0721435546875	-739.3558349609375	40.51453399658203	290.2911071777344	-773.6346435546875	36.59242248535156	389.3562316894531	-953.5366821289062	31.20596313476562	293.0191040039062	
64	0.63	-927.7942504882812	1026.574829101562	269.9225158691406	-920.3972778320312	1031.22900390625	136.1566162109375	-914.282470703125	1108.502197265625	199.51025390625	-680.6786499023438	1298.315307617188	199.6016235351562	-924.372314453125	1234.796630859375	200.4763946533203	-882.64404296875	1507.969482421875	215.8689575195312	-703.5015258789062	1409.872314453125	201.1318511962891	-947.583740234375	1380.426391601562	300.3353576660156	-915.60986328125	1455.430297851562	124.1362609863281	-819.8060302734375	1485.234252929688	42.6103515625	-830.3930053710938	1360.790893554688	-40.91972351074219	-806.5805053710938	1139.2197265625	-63.86869812011719	-895.6891479492188	1129.691528320312	-16.49707412719727	-709.4451904296875	899.0237426757812	-11.18435573577881	-749.4769287109375	874.2066650390625	-84.39899444580078	-780.9320068359375	1053.296020507812	-69.51840972900391	-707.3157958984375	724.3170166015625	-16.21240997314453	-739.7749633789062	814.8171997070312	-74.91828155517578	-686.7669067382812	823.86767578125	-31.39265441894531	-819.4920654296875	1469.465209960938	368.9398193359375	-837.3030395507812	1405.066528320312	436.93994140625	-840.1739501953125	1115.616088867188	483.2110290527344	-895.0570678710938	1098.577026367188	456.6394958496094	-707.3292236328125	894.5568237304688	434.2201232910156	-749.550048828125	873.2662963867188	502.3247680664062	-828.8169555664062	1059.74365234375	489.6068115234375	-697.05859375	720.1716918945312	437.4960021972656	-680.2175903320312	802.2442626953125	445.4877624511719	-733.4630126953125	798.218017578125	497.0336608886719	-825.3250732421875	1682.71728515625	280.6241760253906	-674.9810180664062	1728.106323242188	144.0962219238281	-690.3916625976562	1722.578002929688	286.8320922851562	-800.3123168945312	1688.661010742188	116.4860076904297	-794.4071044921875	942.2759399414062	9.513457298278809	-815.3237915039062	943.0301513671875	396.1793212890625	-724.9118041992188	967.1958618164062	339.0269470214844	-716.1581420898438	961.9347534179688	63.34912109375	-797.6513061523438	494.9223327636719	68.94926452636719	-789.9881591796875	660.5165405273438	29.53447532653809	-874.31396484375	32.77606582641602	81.62664031982422	-860.5845947265625	251.9779205322266	66.85424041748047	-662.2144775390625	39.29597091674805	128.9427032470703	-731.9995727539062	40.92244338989258	168.5016021728516	-752.3651123046875	35.54315185546875	63.65874862670898	-941.3048095703125	36.83560562133789	140.2470245361328	-818.3862915039062	498.0251770019531	361.8720397949219	-789.4921875	787.5924072265625	396.3518371582031	-905.2180786132812	35.39395141601562	355.1815490722656	-823.4907836914062	356.7519226074219	354.9543151855469	-681.3101196289062	39.09963989257812	338.0908203125	-739.3321533203125	40.51778411865234	290.28076171875	-773.6234741210938	36.58810806274414	389.3797607421875	-953.5303344726562	31.21432113647461	292.9956359863281	
65	0.64	-927.3960571289062	1026.607666015625	269.0623168945312	-919.89208984375	1031.2490234375	135.2841033935547	-913.7657470703125	1108.588989257812	198.6483764648438	-679.9869384765625	1298.20458984375	198.8252563476562	-923.7677612304688	1234.90673828125	199.6063690185547	-881.7376708984375	1508.049194335938	215.0703887939453	-702.7816772460938	1409.742919921875	200.3422546386719	-946.9093017578125	1380.551025390625	299.4640197753906	-914.7207641601562	1455.541259765625	123.3431091308594	-818.9005737304688	1485.254272460938	41.82638931274414	-830.024169921875	1360.962646484375	-41.7861213684082	-807.3345947265625	1139.309936523438	-65.03357696533203	-896.4127197265625	1130.246826171875	-17.48710823059082	-711.7901000976562	898.3291625976562	-12.88332462310791	-752.0989990234375	873.9205322265625	-86.10565948486328	-782.2462158203125	1053.212768554688	-70.88018798828125	-711.1553344726562	723.5476684570312	-17.9918155670166	-742.7979736328125	814.4398193359375	-76.77104949951172	-689.2158813476562	823.323974609375	-33.49184417724609	-818.7715454101562	1469.404174804688	368.1452941894531	-836.7500610351562	1405.110107421875	436.1526794433594	-840.2489013671875	1115.687133789062	482.5470275878906	-895.108154296875	1098.693115234375	455.917236328125	-707.4945068359375	894.609130859375	433.85546875	-749.772705078125	873.3319702148438	501.7982482910156	-829.0543823242188	1059.822021484375	489.1230773925781	-697.1342163085938	720.260986328125	437.024658203125	-680.3587646484375	802.2586669921875	445.1344909667969	-733.6608276367188	798.2483520507812	496.4768676757812	-824.37109375	1682.704223632812	279.8792114257812	-673.8047485351562	1727.93896484375	143.5123596191406	-689.3624267578125	1722.357299804688	286.2072448730469	-799.1685791015625	1688.667724609375	115.8047332763672	-793.932373046875	942.1669921875	8.672669410705566	-814.940673828125	943.0438842773438	395.2836608886719	-724.6126098632812	967.1698608398438	338.2915344238281	-715.6143188476562	961.8822631835938	62.63323593139648	-797.51318359375	494.8573913574219	68.46846771240234	-789.7279052734375	660.27392578125	28.90226364135742	-874.3124389648438	32.70332717895508	81.66330718994141	-860.519287109375	251.9057464599609	66.70116424560547	-662.2401123046875	39.31021118164062	128.9436645507812	-732.0021362304688	40.9263801574707	168.5003204345703	-752.3767700195312	35.53271484375	63.65497970581055	-941.32958984375	36.81378173828125	140.2279357910156	-818.119140625	498.0700988769531	361.4751281738281	-789.3468017578125	787.634521484375	395.7633056640625	-905.226318359375	35.4224853515625	355.1685180664062	-823.2212524414062	356.7456970214844	354.6547546386719	-681.31005859375	39.08946228027344	338.1095581054688	-739.3157348632812	40.51931381225586	290.2768249511719	-773.6119995117188	36.5823974609375	389.4088134765625	-953.5230712890625	31.22661209106445	292.9710998535156	
